<svg xmlns="http://www.w3.org/2000/svg" width="16" height="16" fill="none" viewBox="0 0 60 60"><path fill="currentColor" d="M23.88 19.792c1.205-.359 2.456-.192 3.601.07 1.252.287 2.818.8 4.708 1.418l13.669 4.467c3.067 1.002 5.508 1.798 7.277 2.544 1.543.65 3.122 1.468 4.007 2.817l.167.278a6.75 6.75 0 0 1 .241 6.074l-.19.384c-.816 1.53-2.49 2.44-4.124 3.16-1.757.775-4.184 1.61-7.234 2.661l-1.301.448c-.138.048-.246.084-.337.117q-.058.02-.1.037l-.035.097-.117.338-.448 1.3c-1.052 3.051-1.886 5.478-2.66 7.235-.676 1.532-1.519 3.098-2.881 3.961l-.28.163a6.75 6.75 0 0 1-6.077.144l-.38-.195c-1.517-.842-2.4-2.529-3.095-4.174-.746-1.77-1.542-4.211-2.544-7.279L21.28 32.19c-.618-1.891-1.131-3.457-1.417-4.71-.28-1.22-.452-2.561.008-3.84l.127-.326a6.25 6.25 0 0 1 3.641-3.444l.24-.078Zm1.345 4.3-.064.014c-.43.154-.78.469-.98.874l-.076.18c-.004.012-.093.283.143 1.317.23 1.004.663 2.34 1.31 4.315l4.467 13.669c1.029 3.149 1.757 5.371 2.412 6.925.325.769.594 1.282.821 1.618.227.335.34.387.31.371l.128.065a2.25 2.25 0 0 0 2.025-.047l.062-.054c.054-.052.14-.147.256-.313.232-.332.51-.84.846-1.604.68-1.543 1.445-3.754 2.525-6.886l.447-1.3.12-.35c.133-.378.312-.829.59-1.233l.114-.157a4.3 4.3 0 0 1 .816-.814l.155-.114.206-.13c.485-.288 1.007-.454 1.376-.58l1.302-.448 2.18-.754c2.015-.702 3.547-1.26 4.704-1.77.764-.336 1.274-.614 1.606-.846.33-.231.381-.345.366-.317l.063-.128a2.25 2.25 0 0 0-.08-2.026l-.054-.06a2 2 0 0 0-.318-.25c-.336-.227-.849-.497-1.618-.822-1.553-.655-3.776-1.384-6.925-2.413l-13.669-4.466c-1.975-.646-3.31-1.08-4.313-1.309-.777-.178-1.124-.172-1.253-.156ZM14.306 34.19a2.25 2.25 0 0 1 3.183 3.182l-5.137 5.136a2.25 2.25 0 1 1-3.182-3.182zM11.75 23.515a2.25 2.25 0 0 1 0 4.5H4.484a2.25 2.25 0 0 1 0-4.5h7.263ZM9.17 9.02a2.25 2.25 0 0 1 3.182 0l5.137 5.136a2.25 2.25 0 0 1-3.183 3.182L9.17 12.202a2.25 2.25 0 0 1 0-3.182m30.306 0a2.25 2.25 0 0 1 3.182 3.182l-5.136 5.136a2.25 2.25 0 0 1-3.183-3.182zM25.914 2.085a2.25 2.25 0 0 1 2.25 2.25v7.264a2.25 2.25 0 0 1-4.5 0V4.335a2.25 2.25 0 0 1 2.25-2.25"></path></svg>