<svg xmlns="http://www.w3.org/2000/svg" width="16" height="16" fill="none" viewBox="0 0 16 16"><path fill="currentColor" fill-rule="evenodd" d="m7.699 2.491-2.44-.69c-.53-.149-.966-.272-1.324-.34-.367-.07-.723-.095-1.073.005a2.2 2.2 0 0 0-1.266.958c-.192.31-.264.66-.297 1.032-.032.362-.032.816-.032 1.366v5.393c0 .577-.001 1.028.15 1.416q.203.519.628.88c.182.153.386.258.608.351.213.089.479.18.796.289l.018.006c1.129.387 2.613.926 3.943 1.505l.028.012c.1.044.235.103.377.127q.185.03.37 0a1.6 1.6 0 0 0 .377-.127l.028-.012c1.33-.579 2.815-1.118 3.943-1.505l.018-.006c.317-.109.583-.2.796-.289.222-.093.426-.198.608-.352a2.16 2.16 0 0 0 .628-.879c.151-.388.15-.839.15-1.416V4.822c0-.55 0-1.004-.032-1.366-.033-.372-.105-.722-.297-1.032a2.2 2.2 0 0 0-1.266-.958c-.35-.1-.706-.074-1.073-.005-.358.068-.794.191-1.324.34l-2.44.69a2 2 0 0 1-.25.064.5.5 0 0 1-.102 0 2 2 0 0 1-.25-.064m-4.507.129c.087-.025.226-.035.52.02.3.057.684.165 1.248.324l2.44.69v9.7a60 60 0 0 0-3.543-1.332c-.34-.117-.569-.195-.742-.268a1.1 1.1 0 0 1-.294-.16.96.96 0 0 1-.286-.4c-.058-.149-.068-.35-.068-1.085V4.85c0-.585 0-.985.027-1.288.027-.298.075-.43.122-.507a1 1 0 0 1 .576-.435M8.6 13.353a60 60 0 0 1 3.543-1.33c.34-.118.569-.196.742-.268.169-.07.246-.12.295-.16a.96.96 0 0 0 .285-.4c.058-.15.068-.35.068-1.086V4.85c0-.585 0-.985-.027-1.288-.027-.298-.075-.43-.122-.507a1 1 0 0 0-.576-.435c-.087-.025-.226-.035-.52.02-.3.057-.684.165-1.248.324l-2.44.69z" clip-rule="evenodd"></path></svg>