<svg xmlns="http://www.w3.org/2000/svg" width="16" height="16" fill="none" viewBox="0 0 60 60"><path fill="currentColor" d="M27.75 33a2.25 2.25 0 0 0 4.5 0V19a2.25 2.25 0 0 0-4.5 0zM42 35.25A2.25 2.25 0 0 1 39.75 33v-8a2.25 2.25 0 0 1 4.5 0v8A2.25 2.25 0 0 1 42 35.25M15.75 33a2.25 2.25 0 0 0 4.5 0V23a2.25 2.25 0 0 0-4.5 0z"></path><path fill="currentColor" fill-rule="evenodd" d="M2.75 16C2.75 9.787 7.787 4.75 14 4.75h32c6.213 0 11.25 5.037 11.25 11.25v24.764A2.25 2.25 0 0 1 57 45.25H32.25v7.5H39a2.25 2.25 0 0 1 0 4.5H21a2.25 2.25 0 0 1 0-4.5h6.75v-7.5H3a2.25 2.25 0 0 1-.25-4.486zm4.5 0v24.75h45.5V16A6.75 6.75 0 0 0 46 9.25H14A6.75 6.75 0 0 0 7.25 16" clip-rule="evenodd"></path></svg>