<svg xmlns="http://www.w3.org/2000/svg" width="16" height="16" fill="none" viewBox="0 0 16 16"><path fill="currentColor" fill-rule="evenodd" d="M5.146 2.659a.47.47 0 0 0-.425 0c-.006.004-.083.061-.233.35-.153.294-.326.716-.578 1.33L3.638 5h2.59l-.27-.662c-.253-.613-.427-1.035-.579-1.329-.15-.289-.227-.346-.233-.35M6.72 6.198l.724 1.763a.6.6 0 0 0 1.11-.456l-1.5-3.65c-.237-.579-.43-1.05-.61-1.398-.174-.334-.396-.684-.753-.867a1.67 1.67 0 0 0-1.517 0c-.357.183-.58.533-.753.867-.18.347-.373.82-.61 1.398l-1.5 3.65a.6.6 0 1 0 1.11.456L3.145 6.2h3.522l.054-.002zm4.551-2.904c-.325-.027-.745-.027-1.352-.027h-.053a.6.6 0 0 1 0-1.2h.078c.576 0 1.045 0 1.425.03.393.033.744.101 1.071.268.514.262.932.68 1.194 1.194.167.327.235.678.267 1.071.031.38.031.849.031 1.425v.078a.6.6 0 1 1-1.2 0V6.08c0-.607 0-1.027-.027-1.352-.026-.319-.074-.495-.14-.624a1.53 1.53 0 0 0-.67-.67c-.13-.066-.305-.114-.624-.14M2.667 9.267a.6.6 0 0 1 .6.6v.053c0 .607 0 1.027.027 1.352.026.319.074.495.14.624.147.289.381.523.67.67.13.066.305.114.624.14.325.027.745.027 1.352.027h.053a.6.6 0 0 1 0 1.2h-.078c-.576 0-1.045 0-1.425-.03-.393-.033-.744-.101-1.07-.268a2.73 2.73 0 0 1-1.195-1.194c-.167-.327-.235-.678-.267-1.071-.031-.38-.031-.849-.031-1.425v-.078a.6.6 0 0 1 .6-.6" clip-rule="evenodd"></path><path fill="currentColor" d="M14.172 8.715a.6.6 0 0 0-1.144-.363c-.29.914-.815 2.075-1.704 2.99l-.091.094c-.392-.432-.753-.89-1.012-1.252a.6.6 0 0 0-.975.7c.278.386.664.88 1.092 1.352-.527.402-1.155.761-2.007 1.066a.6.6 0 1 0 .404 1.13c1.052-.376 1.825-.835 2.473-1.354.477.363 1.094.673 1.587.895a16 16 0 0 0 1.115.451l.019.007.005.002h.002a.6.6 0 1 0 .394-1.133l-.004-.002-.014-.005-.06-.021c-.052-.02-.13-.048-.225-.085-.19-.073-.453-.18-.74-.308a8.4 8.4 0 0 1-1.173-.628l.071-.073c1.066-1.098 1.666-2.45 1.987-3.463"></path></svg>