<svg xmlns="http://www.w3.org/2000/svg" width="16" height="16" fill="none" viewBox="0 0 16 16"><path fill="currentColor" fill-rule="evenodd" d="M6.481 1H8a.6.6 0 0 1 0 1.2H6.507c-.682 0-1.158 0-1.528.03-.363.03-.572.086-.73.166a1.8 1.8 0 0 0-.786.787c-.08.158-.136.366-.166.73-.03.37-.03.845-.03 1.527v6.465c0 .47 0 .78.021 1.009.021.23.057.286.063.294a.47.47 0 0 0 .314.194c.01.002.076.009.292-.075.214-.084.492-.222.911-.432l2.1-1.05.05-.025c.23-.115.443-.222.675-.265.203-.039.411-.039.614 0 .232.043.445.15.674.265l.05.025 2.1 1.05c.42.21.698.348.912.432.216.084.282.077.292.075a.47.47 0 0 0 .314-.194c.006-.008.042-.064.063-.294s.021-.54.021-1.009V8.267a.6.6 0 1 1 1.2 0v3.666c0 .434 0 .8-.026 1.09-.027.296-.088.606-.275.873a1.67 1.67 0 0 1-1.122.693c-.322.048-.626-.036-.903-.145-.272-.106-.6-.27-.987-.463l-2.125-1.063c-.311-.155-.364-.176-.409-.184a.5.5 0 0 0-.172 0c-.045.008-.098.029-.409.184L5.38 13.981a13 13 0 0 1-.987.463c-.277.109-.58.193-.903.145a1.67 1.67 0 0 1-1.122-.693c-.187-.267-.248-.577-.275-.873-.026-.29-.026-.656-.026-1.09V5.414c0-.65 0-1.174.034-1.6.036-.436.112-.82.293-1.176a3 3 0 0 1 1.31-1.311c.356-.181.74-.257 1.177-.292C5.306 1 5.831 1 6.481 1" clip-rule="evenodd"></path><path fill="currentColor" d="M11.667 6.4a.6.6 0 1 0 1.2 0V4.333h2.066a.6.6 0 1 0 0-1.2h-2.066V1.067a.6.6 0 0 0-1.2 0v2.066H9.6a.6.6 0 0 0 0 1.2h2.067z"></path></svg>